<svg width="48" height="48" viewBox="0 0 48 48" fill="none" xmlns="http://www.w3.org/2000/svg">
<g id="icon-park-outline:city-one">
<g id="Group">
<path id="Vector" d="M4 42H44" stroke="#6BA2E3" stroke-width="4" stroke-linecap="round" stroke-linejoin="round"/>
<path id="Vector_2" d="M18 22H10C8.89543 22 8 22.8954 8 24V40C8 41.1046 8.89543 42 10 42H18C19.1046 42 20 41.1046 20 40V24C20 22.8954 19.1046 22 18 22Z" stroke="#6BA2E3" stroke-width="4" stroke-linejoin="round"/>
<path id="Vector_3" d="M38 4H22C20.8954 4 20 4.89543 20 6V40C20 41.1046 20.8954 42 22 42H38C39.1046 42 40 41.1046 40 40V6C40 4.89543 39.1046 4 38 4Z" stroke="#6BA2E3" stroke-width="4" stroke-linejoin="round"/>
<path id="Vector_4" d="M28 32.008H32M12 32.008H16M28 23.008H32M28 14.008H32" stroke="#6BA2E3" stroke-width="4" stroke-linecap="round" stroke-linejoin="round"/>
</g>
</g>
</svg>
