<svg width="34" height="33" viewBox="0 0 34 33" fill="none" xmlns="http://www.w3.org/2000/svg">
<g id="Company">
<path id="Vector" d="M2 31H32.5263" stroke="#EEEEEE" stroke-width="2.5" stroke-linecap="round" stroke-linejoin="round"/>
<path id="Vector_2" d="M12.6842 15.7368H6.57893C5.73597 15.7368 5.05261 16.4202 5.05261 17.2631V29.4737C5.05261 30.3166 5.73597 31 6.57893 31H12.6842C13.5272 31 14.2105 30.3166 14.2105 29.4737V17.2631C14.2105 16.4202 13.5272 15.7368 12.6842 15.7368Z" stroke="#EEEEEE" stroke-width="2.5" stroke-linejoin="round"/>
<path id="Vector_3" d="M27.9474 2H15.7368C14.8939 2 14.2105 2.68335 14.2105 3.52632V29.4737C14.2105 30.3166 14.8939 31 15.7368 31H27.9474C28.7903 31 29.4737 30.3166 29.4737 29.4737V3.52632C29.4737 2.68335 28.7903 2 27.9474 2Z" stroke="#EEEEEE" stroke-width="2.5" stroke-linejoin="round"/>
<path id="Vector_4" d="M20.3158 23.3745H23.3684M8.10529 23.3745H11.1579M20.3158 16.5061H23.3684M20.3158 9.6377H23.3684" stroke="#EEEEEE" stroke-width="2.5" stroke-linecap="round" stroke-linejoin="round"/>
</g>
</svg>
