<svg width="22" height="24" viewBox="0 0 22 24" fill="none" xmlns="http://www.w3.org/2000/svg">
<path id="Vector" d="M22 12.9231C22 14.4231 21.7088 15.8558 21.1263 17.2212C20.5438 18.5865 19.7609 19.7644 18.7773 20.7548C17.7938 21.7452 16.6241 22.5337 15.2682 23.1202C13.9123 23.7067 12.4896 24 11 24C9.51042 24 8.08767 23.7067 6.73177 23.1202C5.37587 22.5337 4.20616 21.7452 3.22266 20.7548C2.23915 19.7644 1.45616 18.5865 0.873698 17.2212C0.291233 15.8558 0 14.4231 0 12.9231C0 11.1731 0.384332 9.52404 1.15299 7.97596C1.92166 6.42788 3.00304 5.12981 4.39714 4.08173C4.80773 3.77404 5.26367 3.65385 5.76497 3.72115C6.26628 3.78846 6.66493 4.02885 6.96094 4.44231C7.26649 4.84615 7.38346 5.30048 7.31185 5.80529C7.24023 6.3101 7.00391 6.71635 6.60286 7.02404C5.6671 7.73558 4.94379 8.60577 4.43294 9.63462C3.92209 10.6635 3.66667 11.7596 3.66667 12.9231C3.66667 13.9231 3.86003 14.8774 4.24675 15.7861C4.63346 16.6947 5.15625 17.4808 5.8151 18.1442C6.47396 18.8077 7.25456 19.3341 8.1569 19.7236C9.05925 20.113 10.0069 20.3077 11 20.3077C11.9931 20.3077 12.9408 20.113 13.8431 19.7236C14.7454 19.3341 15.526 18.8077 16.1849 18.1442C16.8438 17.4808 17.3665 16.6947 17.7533 15.7861C18.14 14.8774 18.3333 13.9231 18.3333 12.9231C18.3333 11.7596 18.0779 10.6635 17.5671 9.63462C17.0562 8.60577 16.3329 7.73558 15.3971 7.02404C14.9961 6.71635 14.7598 6.3101 14.6882 5.80529C14.6165 5.30048 14.7335 4.84615 15.0391 4.44231C15.3351 4.02885 15.7361 3.78846 16.2422 3.72115C16.7483 3.65385 17.2018 3.77404 17.6029 4.08173C18.997 5.12981 20.0783 6.42788 20.847 7.97596C21.6157 9.52404 22 11.1731 22 12.9231ZM12.8333 1.84615V11.0769C12.8333 11.5769 12.6519 12.0096 12.2891 12.375C11.9262 12.7404 11.4965 12.9231 11 12.9231C10.5035 12.9231 10.0738 12.7404 9.71094 12.375C9.34809 12.0096 9.16667 11.5769 9.16667 11.0769V1.84615C9.16667 1.34615 9.34809 0.913462 9.71094 0.548077C10.0738 0.182692 10.5035 0 11 0C11.4965 0 11.9262 0.182692 12.2891 0.548077C12.6519 0.913462 12.8333 1.34615 12.8333 1.84615Z" fill="#EEEEEE"/>
</svg>
