<svg width="29" height="29" viewBox="0 0 29 29" fill="none" xmlns="http://www.w3.org/2000/svg">
<path id="Vector" d="M10.375 26.875H18.625M10.375 26.875V20M10.375 26.875H2.95C2.7312 26.875 2.52135 26.7881 2.36664 26.6334C2.21192 26.4786 2.125 26.2688 2.125 26.05V20.825C2.125 20.6062 2.21192 20.3964 2.36664 20.2416C2.52135 20.0869 2.7312 20 2.95 20H10.375M18.625 26.875V10.375M18.625 26.875H26.05C26.2688 26.875 26.4786 26.7881 26.6334 26.6334C26.7881 26.4786 26.875 26.2688 26.875 26.05V2.95C26.875 2.7312 26.7881 2.52135 26.6334 2.36664C26.4786 2.21192 26.2688 2.125 26.05 2.125H19.45C19.2312 2.125 19.0214 2.21192 18.8666 2.36664C18.7119 2.52135 18.625 2.7312 18.625 2.95V10.375M18.625 10.375H11.2C10.9812 10.375 10.7714 10.4619 10.6166 10.6166C10.4619 10.7714 10.375 10.9812 10.375 11.2V20" stroke="#EEEEEE" stroke-width="2.5"/>
</svg>
