<svg width="26" height="28" viewBox="0 0 26 28" fill="none" xmlns="http://www.w3.org/2000/svg">
<path id="Vector" d="M15.4267 27.3333H10.5733C10.2692 27.3333 9.97426 27.2294 9.73732 27.0388C9.50039 26.8482 9.33573 26.5823 9.27065 26.2853L8.72799 23.7733C8.00407 23.4561 7.31763 23.0594 6.68132 22.5906L4.23199 23.3706C3.94207 23.4631 3.62925 23.4536 3.34548 23.3437C3.06171 23.2338 2.82406 23.0302 2.67199 22.7666L0.239988 18.5653C0.0895153 18.3015 0.0330315 17.9944 0.079778 17.6943C0.126525 17.3942 0.273733 17.1188 0.497321 16.9133L2.39732 15.18C2.31092 14.3948 2.31092 13.6025 2.39732 12.8173L0.497321 11.088C0.273417 10.8823 0.126008 10.6067 0.0792535 10.3063C0.0324994 10.0059 0.089174 9.69859 0.239988 9.43463L2.66666 5.23063C2.81872 4.96705 3.05638 4.76341 3.34015 4.65354C3.62392 4.54367 3.93674 4.53417 4.22666 4.62663L6.67599 5.40663C7.00132 5.16663 7.33999 4.94263 7.68932 4.73996C8.02666 4.55063 8.37332 4.37863 8.72799 4.22529L9.27199 1.71596C9.33675 1.41889 9.5011 1.15288 9.73778 0.962024C9.97447 0.771172 10.2693 0.666946 10.5733 0.666626H15.4267C15.7307 0.666946 16.0255 0.771172 16.2622 0.962024C16.4989 1.15288 16.6632 1.41889 16.728 1.71596L17.2773 4.22663C18.0008 4.54382 18.6868 4.94048 19.3227 5.40929L21.7733 4.62929C22.0631 4.53718 22.3756 4.54685 22.6591 4.65671C22.9425 4.76656 23.18 4.97 23.332 5.23329L25.7587 9.43729C26.068 9.97996 25.9613 10.6666 25.5013 11.0893L23.6013 12.8226C23.6877 13.6078 23.6877 14.4001 23.6013 15.1853L25.5013 16.9186C25.9613 17.3426 26.068 18.028 25.7587 18.5706L23.332 22.7746C23.1799 23.0382 22.9423 23.2418 22.6585 23.3517C22.3747 23.4616 22.0619 23.4711 21.772 23.3786L19.3227 22.5986C18.6868 23.0671 18.0008 23.4633 17.2773 23.78L16.728 26.2853C16.663 26.5821 16.4985 26.8478 16.2618 27.0384C16.0252 27.229 15.7305 27.333 15.4267 27.3333ZM7.15999 19.6386L8.25332 20.4386C8.49999 20.62 8.75599 20.7866 9.02266 20.9386C9.27332 21.084 9.52932 21.2146 9.79465 21.3333L11.0387 21.8786L11.648 24.6666H14.3547L14.964 21.8773L16.208 21.332C16.7507 21.092 17.2667 20.7946 17.7453 20.444L18.8387 19.644L21.5613 20.5106L22.9147 18.1666L20.804 16.2426L20.9533 14.8933C21.02 14.3026 21.02 13.7066 20.9533 13.1173L20.804 11.768L22.916 9.83996L21.5613 7.49463L18.84 8.36129L17.7453 7.56129C17.2664 7.20888 16.751 6.90894 16.208 6.66663L14.964 6.12129L14.3547 3.33329H11.648L11.0347 6.12263L9.79465 6.66663C9.2509 6.90477 8.73529 7.2026 8.25732 7.55463L7.16265 8.35463L4.44265 7.48796L3.08666 9.83996L5.19732 11.7613L5.04799 13.112C4.98132 13.7026 4.98132 14.2986 5.04799 14.888L5.19732 16.2373L3.08666 18.1613L4.43999 20.5053L7.15999 19.6386ZM12.9947 19.3333C11.5802 19.3333 10.2236 18.7714 9.22342 17.7712C8.22322 16.771 7.66132 15.4144 7.66132 14C7.66132 12.5855 8.22322 11.2289 9.22342 10.2287C10.2236 9.22853 11.5802 8.66663 12.9947 8.66663C14.4091 8.66663 15.7657 9.22853 16.7659 10.2287C17.7661 11.2289 18.328 12.5855 18.328 14C18.328 15.4144 17.7661 16.771 16.7659 17.7712C15.7657 18.7714 14.4091 19.3333 12.9947 19.3333ZM12.9947 11.3333C12.4725 11.3338 11.9619 11.4877 11.5264 11.7757C11.0908 12.0638 10.7494 12.4734 10.5445 12.9537C10.3396 13.434 10.2803 13.9639 10.3738 14.4776C10.4674 14.9914 10.7097 15.4664 11.0707 15.8436C11.4317 16.2209 11.8956 16.4839 12.4047 16.5999C12.9139 16.716 13.4459 16.68 13.9347 16.4964C14.4236 16.3129 14.8478 15.9898 15.1547 15.5674C15.4617 15.1449 15.6378 14.6416 15.6613 14.12V14.6533V14C15.6613 13.2927 15.3804 12.6144 14.8803 12.1143C14.3802 11.6142 13.7019 11.3333 12.9947 11.3333Z" fill="#EEEEEE"/>
</svg>
