<svg width="28" height="31" viewBox="0 0 28 31" fill="none" xmlns="http://www.w3.org/2000/svg">
<g id="Vector">
<mask id="path-1-inside-1_28_15" fill="white">
<path d="M24.1594 3.97481C24.1028 3.14507 23.7333 2.36775 23.1255 1.80005C22.5177 1.23235 21.7171 0.91661 20.8854 0.916687H4.11456L3.88998 0.923979C3.06024 0.980903 2.28308 1.35078 1.71565 1.95883C1.14821 2.56687 0.832842 3.36771 0.833314 4.1994V26.8006L0.840605 27.0252C0.897159 27.855 1.26668 28.6323 1.87445 29.2C2.48222 29.7677 3.28289 30.0834 4.11456 30.0834H15.1512L12.9637 27.8959H4.11456L3.96581 27.8856C3.70396 27.8497 3.46399 27.7202 3.29027 27.521C3.11654 27.3218 3.02082 27.0664 3.02081 26.8021V4.1994L3.03102 4.05065C3.06697 3.7888 3.19652 3.54882 3.39571 3.3751C3.5949 3.20137 3.85026 3.10566 4.11456 3.10565H20.8854L21.0341 3.11585C21.296 3.1518 21.536 3.28135 21.7097 3.48054C21.8834 3.67973 21.9791 3.93509 21.9791 4.1994V21.0679L23.6694 19.3777C23.8239 19.2231 23.9902 19.0861 24.1652 18.9694V4.19794L24.1594 3.97335V3.97481ZM18.7533 30.0819C18.7164 30.0839 18.6794 30.0839 18.6425 30.0819C18.3715 30.0683 18.1153 29.9545 17.9235 29.7625L14.2777 26.1138C14.0727 25.9084 13.9577 25.63 13.958 25.3398C13.9582 25.0497 14.0738 24.7715 14.2791 24.5665C14.4845 24.3615 14.7629 24.2465 15.0531 24.2468C15.3433 24.247 15.6214 24.3626 15.8264 24.5679L18.6979 27.4423L25.2166 20.9236C25.3176 20.8191 25.4383 20.7359 25.5718 20.6786C25.7053 20.6214 25.8488 20.5913 25.994 20.5901C26.1392 20.5889 26.2833 20.6166 26.4177 20.6717C26.552 20.7267 26.6741 20.808 26.7768 20.9107C26.8794 21.0135 26.9606 21.1356 27.0155 21.2701C27.0704 21.4045 27.098 21.5486 27.0967 21.6938C27.0954 21.839 27.0651 21.9825 27.0078 22.1159C26.9504 22.2494 26.867 22.37 26.7625 22.4709L19.4708 29.7625C19.2794 29.9541 19.0238 30.0679 18.7533 30.0819ZM15.1833 22.0625C15.0949 22.059 15.0063 22.059 14.9179 22.0625H11.3989C11.1089 22.0625 10.8307 21.9473 10.6255 21.7422C10.4204 21.5371 10.3052 21.2589 10.3052 20.9688C10.3052 20.6787 10.4204 20.4005 10.6255 20.1954C10.8307 19.9903 11.1089 19.875 11.3989 19.875H18.6964C18.9865 19.875 19.2647 19.9903 19.4698 20.1954C19.675 20.4005 19.7902 20.6787 19.7902 20.9688C19.7902 21.2589 19.675 21.5371 19.4698 21.7422C19.2647 21.9473 18.9865 22.0625 18.6964 22.0625H15.1833ZM8.12498 9.30502C8.12498 9.6918 7.97133 10.0627 7.69784 10.3362C7.42435 10.6097 7.05342 10.7634 6.66665 10.7634C6.27987 10.7634 5.90894 10.6097 5.63545 10.3362C5.36196 10.0627 5.20831 9.6918 5.20831 9.30502C5.20831 8.91825 5.36196 8.54731 5.63545 8.27382C5.90894 8.00033 6.27987 7.84669 6.66665 7.84669C7.05342 7.84669 7.42435 8.00033 7.69784 8.27382C7.97133 8.54731 8.12498 8.91825 8.12498 9.30502ZM10.3066 9.3021C10.3066 9.01202 10.4219 8.73382 10.627 8.52871C10.8321 8.32359 11.1103 8.20835 11.4004 8.20835H18.6979C18.988 8.20835 19.2662 8.32359 19.4713 8.52871C19.6764 8.73382 19.7916 9.01202 19.7916 9.3021C19.7916 9.59219 19.6764 9.87038 19.4713 10.0755C19.2662 10.2806 18.988 10.3959 18.6979 10.3959H11.4004C11.1103 10.3959 10.8321 10.2806 10.627 10.0755C10.4219 9.87038 10.3066 9.59219 10.3066 9.3021ZM11.4004 14.0417C11.1103 14.0417 10.8321 14.1569 10.627 14.362C10.4219 14.5672 10.3066 14.8454 10.3066 15.1354C10.3066 15.4255 10.4219 15.7037 10.627 15.9088C10.8321 16.114 11.1103 16.2292 11.4004 16.2292H18.6979C18.8415 16.2292 18.9838 16.2009 19.1165 16.1459C19.2492 16.091 19.3697 16.0104 19.4713 15.9088C19.5729 15.8073 19.6534 15.6867 19.7084 15.554C19.7634 15.4213 19.7916 15.2791 19.7916 15.1354C19.7916 14.9918 19.7634 14.8496 19.7084 14.7169C19.6534 14.5842 19.5729 14.4636 19.4713 14.362C19.3697 14.2605 19.2492 14.1799 19.1165 14.1249C18.9838 14.07 18.8415 14.0417 18.6979 14.0417H11.4004ZM6.66665 16.5938C7.05342 16.5938 7.42435 16.4401 7.69784 16.1666C7.97133 15.8931 8.12498 15.5222 8.12498 15.1354C8.12498 14.7487 7.97133 14.3777 7.69784 14.1042C7.42435 13.8308 7.05342 13.6771 6.66665 13.6771C6.27987 13.6771 5.90894 13.8308 5.63545 14.1042C5.36196 14.3777 5.20831 14.7487 5.20831 15.1354C5.20831 15.5222 5.36196 15.8931 5.63545 16.1666C5.90894 16.4401 6.27987 16.5938 6.66665 16.5938ZM8.12498 20.9659C8.12498 21.3526 7.97133 21.7236 7.69784 21.9971C7.42435 22.2705 7.05342 22.4242 6.66665 22.4242C6.27987 22.4242 5.90894 22.2705 5.63545 21.9971C5.36196 21.7236 5.20831 21.3526 5.20831 20.9659C5.20831 20.5791 5.36196 20.2081 5.63545 19.9347C5.90894 19.6612 6.27987 19.5075 6.66665 19.5075C7.05342 19.5075 7.42435 19.6612 7.69784 19.9347C7.97133 20.2081 8.12498 20.5791 8.12498 20.9659Z"/>
</mask>
<path d="M24.1594 3.97481C24.1028 3.14507 23.7333 2.36775 23.1255 1.80005C22.5177 1.23235 21.7171 0.91661 20.8854 0.916687H4.11456L3.88998 0.923979C3.06024 0.980903 2.28308 1.35078 1.71565 1.95883C1.14821 2.56687 0.832842 3.36771 0.833314 4.1994V26.8006L0.840605 27.0252C0.897159 27.855 1.26668 28.6323 1.87445 29.2C2.48222 29.7677 3.28289 30.0834 4.11456 30.0834H15.1512L12.9637 27.8959H4.11456L3.96581 27.8856C3.70396 27.8497 3.46399 27.7202 3.29027 27.521C3.11654 27.3218 3.02082 27.0664 3.02081 26.8021V4.1994L3.03102 4.05065C3.06697 3.7888 3.19652 3.54882 3.39571 3.3751C3.5949 3.20137 3.85026 3.10566 4.11456 3.10565H20.8854L21.0341 3.11585C21.296 3.1518 21.536 3.28135 21.7097 3.48054C21.8834 3.67973 21.9791 3.93509 21.9791 4.1994V21.0679L23.6694 19.3777C23.8239 19.2231 23.9902 19.0861 24.1652 18.9694V4.19794L24.1594 3.97335V3.97481ZM18.7533 30.0819C18.7164 30.0839 18.6794 30.0839 18.6425 30.0819C18.3715 30.0683 18.1153 29.9545 17.9235 29.7625L14.2777 26.1138C14.0727 25.9084 13.9577 25.63 13.958 25.3398C13.9582 25.0497 14.0738 24.7715 14.2791 24.5665C14.4845 24.3615 14.7629 24.2465 15.0531 24.2468C15.3433 24.247 15.6214 24.3626 15.8264 24.5679L18.6979 27.4423L25.2166 20.9236C25.3176 20.8191 25.4383 20.7359 25.5718 20.6786C25.7053 20.6214 25.8488 20.5913 25.994 20.5901C26.1392 20.5889 26.2833 20.6166 26.4177 20.6717C26.552 20.7267 26.6741 20.808 26.7768 20.9107C26.8794 21.0135 26.9606 21.1356 27.0155 21.2701C27.0704 21.4045 27.098 21.5486 27.0967 21.6938C27.0954 21.839 27.0651 21.9825 27.0078 22.1159C26.9504 22.2494 26.867 22.37 26.7625 22.4709L19.4708 29.7625C19.2794 29.9541 19.0238 30.0679 18.7533 30.0819ZM15.1833 22.0625C15.0949 22.059 15.0063 22.059 14.9179 22.0625H11.3989C11.1089 22.0625 10.8307 21.9473 10.6255 21.7422C10.4204 21.5371 10.3052 21.2589 10.3052 20.9688C10.3052 20.6787 10.4204 20.4005 10.6255 20.1954C10.8307 19.9903 11.1089 19.875 11.3989 19.875H18.6964C18.9865 19.875 19.2647 19.9903 19.4698 20.1954C19.675 20.4005 19.7902 20.6787 19.7902 20.9688C19.7902 21.2589 19.675 21.5371 19.4698 21.7422C19.2647 21.9473 18.9865 22.0625 18.6964 22.0625H15.1833ZM8.12498 9.30502C8.12498 9.6918 7.97133 10.0627 7.69784 10.3362C7.42435 10.6097 7.05342 10.7634 6.66665 10.7634C6.27987 10.7634 5.90894 10.6097 5.63545 10.3362C5.36196 10.0627 5.20831 9.6918 5.20831 9.30502C5.20831 8.91825 5.36196 8.54731 5.63545 8.27382C5.90894 8.00033 6.27987 7.84669 6.66665 7.84669C7.05342 7.84669 7.42435 8.00033 7.69784 8.27382C7.97133 8.54731 8.12498 8.91825 8.12498 9.30502ZM10.3066 9.3021C10.3066 9.01202 10.4219 8.73382 10.627 8.52871C10.8321 8.32359 11.1103 8.20835 11.4004 8.20835H18.6979C18.988 8.20835 19.2662 8.32359 19.4713 8.52871C19.6764 8.73382 19.7916 9.01202 19.7916 9.3021C19.7916 9.59219 19.6764 9.87038 19.4713 10.0755C19.2662 10.2806 18.988 10.3959 18.6979 10.3959H11.4004C11.1103 10.3959 10.8321 10.2806 10.627 10.0755C10.4219 9.87038 10.3066 9.59219 10.3066 9.3021ZM11.4004 14.0417C11.1103 14.0417 10.8321 14.1569 10.627 14.362C10.4219 14.5672 10.3066 14.8454 10.3066 15.1354C10.3066 15.4255 10.4219 15.7037 10.627 15.9088C10.8321 16.114 11.1103 16.2292 11.4004 16.2292H18.6979C18.8415 16.2292 18.9838 16.2009 19.1165 16.1459C19.2492 16.091 19.3697 16.0104 19.4713 15.9088C19.5729 15.8073 19.6534 15.6867 19.7084 15.554C19.7634 15.4213 19.7916 15.2791 19.7916 15.1354C19.7916 14.9918 19.7634 14.8496 19.7084 14.7169C19.6534 14.5842 19.5729 14.4636 19.4713 14.362C19.3697 14.2605 19.2492 14.1799 19.1165 14.1249C18.9838 14.07 18.8415 14.0417 18.6979 14.0417H11.4004ZM6.66665 16.5938C7.05342 16.5938 7.42435 16.4401 7.69784 16.1666C7.97133 15.8931 8.12498 15.5222 8.12498 15.1354C8.12498 14.7487 7.97133 14.3777 7.69784 14.1042C7.42435 13.8308 7.05342 13.6771 6.66665 13.6771C6.27987 13.6771 5.90894 13.8308 5.63545 14.1042C5.36196 14.3777 5.20831 14.7487 5.20831 15.1354C5.20831 15.5222 5.36196 15.8931 5.63545 16.1666C5.90894 16.4401 6.27987 16.5938 6.66665 16.5938ZM8.12498 20.9659C8.12498 21.3526 7.97133 21.7236 7.69784 21.9971C7.42435 22.2705 7.05342 22.4242 6.66665 22.4242C6.27987 22.4242 5.90894 22.2705 5.63545 21.9971C5.36196 21.7236 5.20831 21.3526 5.20831 20.9659C5.20831 20.5791 5.36196 20.2081 5.63545 19.9347C5.90894 19.6612 6.27987 19.5075 6.66665 19.5075C7.05342 19.5075 7.42435 19.6612 7.69784 19.9347C7.97133 20.2081 8.12498 20.5791 8.12498 20.9659Z" fill="#EEEEEE" stroke="#EEEEEE" stroke-width="7" mask="url(#path-1-inside-1_28_15)"/>
</g>
</svg>
